PathFileType	4	(X/Y/Z)	Patient4_TMGait_0pt3_02_right_15.trc.trc
DataRate	CameraRate	NumFrames	NumMarkers	Units	OrigDataRate	OrigDataStartFrame	OrigNumFrames
51.660516605166	51.660516605166	5	33	mm	51.660516605166	36	       141
Frame#	Time	Sacral			L.Shoulder			Chest			R.Shoulder			Neck			R.ASIS			L.ASIS			R.Thigh.Superior			R.Thigh.Lateral			R.Thigh.Inferior			R.Patella			L.Thigh.Superior			L.Thigh.Lateral			L.Thigh.Inferior			L.Patella			L.Shank.Superior			L.Shank.Lateral			L.Shank.Inferior			R.Shank.Superior			R.Shank.Lateral			R.Shank.Inferior			R.Heel			R.Midfoot.Superior			R.Midfoot.Lateral			R.Toe			L.Heel			L.Midfoot.Lateral			L.Midfoot.Superior			L.Toe			L.Elbow			L.Wrist			R.Elbow			R.Wrist			
		X1	Y1	Z1	X2	Y2	Z2	X3	Y3	Z3	X4	Y4	Z4	X5	Y5	Z5	X6	Y6	Z6	X7	Y7	Z7	X8	Y8	Z8	X9	Y9	Z9	X10	Y10	Z10	X11	Y11	Z11	X12	Y12	Z12	X13	Y13	Z13	X14	Y14	Z14	X15	Y15	Z15	X16	Y16	Z16	X17	Y17	Z17	X18	Y18	Z18	X19	Y19	Z19	X20	Y20	Z20	X21	Y21	Z21	X22	Y22	Z22	X23	Y23	Z23	X24	Y24	Z24	X25	Y25	Z25	X26	Y26	Z26	X27	Y27	Z27	X28	Y28	Z28	X29	Y29	Z29	X30	Y30	Z30	X31	Y31	Z31	X32	Y32	Z32	X33	Y33	Z33	

36	28.777500000000	725.530820504101	1008.809118533340	468.020602571605	973.920609517382	1430.821401768925	344.913554162229	1027.553703409322	1352.532772186563	523.442858275039	908.619078622916	1431.594867824683	672.533563613611	917.779276385297	1488.548077258724	496.722593012968	930.438754575129	932.756905212992	622.514466093802	962.090108585836	954.132499613763	352.026962261439	998.926400762936	749.125430123719	582.601935947500	931.372591128790	628.811103540690	636.597168939662	1018.730241151025	588.323569228871	558.239749774808	1033.140573684487	498.491040523037	564.527704630710	960.155817205526	721.871220689702	375.922424794804	852.225177783710	623.964024565514	305.326546871994	910.099248118994	530.504477978666	374.702260869784	893.460172554381	456.050722780582	377.640927204521	839.302330509787	398.278083839263	366.035879411117	716.723994774113	323.012675727764	308.494158744704	724.459613058568	197.696249206910	373.831592825532	1004.546432261495	408.070333434006	569.900464297512	935.601220840896	303.273588158508	632.938408556505	977.868542219512	208.745713161452	569.331323886043	843.769527259352	44.767162896492	541.950594931340	1016.343007966901	97.011999216536	577.229141600199	927.313277732271	38.138758178408	615.579998960085	1135.639426236560	41.486050731659	605.179609666068	553.448869351420	78.442194281721	405.561700703843	628.436914797587	56.052504353850	330.631970929456	721.122729475283	102.099924316612	358.294271779570	835.919333496837	35.747082233346	338.635881858785	1123.849364091742	1171.698968383176	161.807283197308	1382.694015867337	1193.707761747427	167.242919772531	723.750132553848	1132.491039895166	740.849058020776	669.779507775481	877.841707249907	761.066556121703	
37	28.796857142857	727.117504893992	1009.965836523100	474.226006091351	974.258739542942	1431.629839194882	348.084178325514	1030.071916421311	1353.404017189081	526.071887684720	912.786541576940	1432.570171772718	676.401208956088	919.931592543130	1489.511208588782	500.245503345185	933.401886681772	933.421352395976	626.554827246346	962.389646765280	954.991416456971	355.937853146595	999.796961683279	748.422860485429	586.629013692241	930.543086118596	628.780890985933	640.017444024022	1017.389726354542	587.620974852150	561.481609425704	1030.673246889669	497.696207367458	567.144889217729	962.832636900098	723.289068538159	379.528618883072	856.346158989359	624.319270947947	308.948375405872	916.200811040620	530.947500640372	377.652569275388	899.930207568723	455.351235244582	379.565970195031	843.810177210231	398.566347050401	368.038634022972	718.981354000150	327.061621095637	310.521884057374	724.297700909946	200.841521972658	374.271539507196	1001.392554982660	407.547551605709	572.007640662119	931.710066091455	302.885473828587	634.433278542829	973.244830890575	208.437915282055	570.209839805586	838.242402802324	44.720406817513	542.086410410047	1010.762719305356	97.048586419359	577.466872934470	921.804674365646	38.078646326825	615.641314785593	1130.103470278411	41.387142189151	605.350596678616	550.215137279556	86.905600414940	405.064292835572	624.408358927526	61.551104700217	330.357850188647	718.642939713799	104.215205266135	357.953954544403	830.260832813284	35.016031645542	338.906575259767	1120.590557215567	1168.980366447528	165.496139054056	1379.961072113847	1186.595383200285	168.890912404644	731.198129390874	1131.703065648748	749.026055836328	680.736644607681	876.577286609382	771.400339026884	
38	28.816214285714	728.354940051428	1011.014071849752	480.362678452464	974.161871471442	1432.379852217303	351.048516092248	1032.258921586581	1354.121875921560	528.399021633259	916.735756867498	1433.275965298616	680.063805115565	921.800577033516	1490.357118638205	503.612213003037	936.119426651973	933.987252831040	630.423185655189	962.251740251041	955.733467766223	359.654859853954	1000.328149537517	747.598417454425	590.573069582882	929.386506842278	628.701929722746	643.373510309886	1015.698919597474	586.865470682510	564.657853928580	1027.839806972143	496.879901897798	569.755274974338	965.881005005186	724.880414236275	383.203427730764	861.382748474177	624.465001759483	312.618818415728	923.451425508410	531.452393168704	380.845909596349	907.648766758971	454.602729361976	381.773130466954	849.475199846705	398.746062071339	370.295221175494	722.451520711989	331.395556057271	312.659373377468	724.861125545842	204.451732634186	374.933034619972	997.901157453783	407.020215749816	574.144982378186	927.484135546819	302.477514584031	635.926888821449	968.450084594795	208.153881851371	571.145770204915	832.668399538209	44.673538551714	542.190006836800	1005.124531861963	97.078780380849	577.710091836511	916.230616414199	38.021253132095	615.695688996629	1124.487597134639	41.338497094901	605.545959021059	547.517501993917	96.527215124014	404.586054327909	620.803534771165	68.187670125386	330.078581832701	716.587512871405	107.020514454723	357.771328008300	824.660828569769	34.299899473894	339.189095790611	1116.266766933290	1165.731817408681	169.132946434587	1376.144258859646	1178.232330022711	170.500371275868	739.023672012589	1130.341797616056	757.064934835968	692.361490133185	874.746495338386	781.504813217617	
39	28.835571428571	729.229836682909	1011.922014600114	486.409610352249	973.613149783936	1433.051229865243	353.785622009527	1034.072104748785	1354.666971436092	530.401828552642	920.423171658028	1433.691338006503	683.487268544363	923.355355691919	1491.068376220913	506.797361592738	938.578341168113	934.466760797030	634.084791169473	961.660793294512	956.330276361697	363.147255193104	1000.572008436993	746.692499425027	594.377605812890	928.013580584887	628.589811740866	646.631213912505	1013.765928695857	586.087110161791	567.721670762648	1024.783618540673	496.051747636321	572.323678552436	969.269744307513	726.661289274692	386.925326820002	867.304467831898	624.451464485788	316.306792106027	931.786457258697	532.089648782155	384.258994153337	916.562101580250	453.894034874347	384.258640115411	856.276088401642	398.869770540738	372.792456313778	727.146190836072	336.037295720179	314.907384757840	726.182760937910	208.572209036923	375.831309555900	994.191080391071	406.490191657549	576.277526675798	923.031062793958	302.069089556564	637.409983257805	963.537290389248	207.890482396766	572.115537181187	827.029172351938	44.644928180421	542.263376124682	999.433612293963	97.088176024187	577.940748367984	910.577222615998	37.974646632882	615.742951220387	1118.791344091041	41.289247573802	605.750011374231	545.474780510122	107.265920504759	404.205201611936	617.740505019039	76.018016404340	329.834909869670	715.026234062006	110.629946253252	357.767287668663	819.244187582610	33.701786764576	339.412520904594	1110.818428235316	1161.897979068883	172.784370381124	1371.133275143461	1168.394269129414	172.143836895481	747.320736956858	1128.329238580977	764.866551231622	704.825674595064	872.262956113481	791.298166536017	
40	28.854928571429	729.740150595626	1012.660599484130	492.339588569224	972.597354326742	1433.625540957849	356.274273785784	1035.480228183872	1355.033009896292	532.060579776300	923.816600820646	1433.816584359485	686.639702566058	924.566248146936	1491.635017697447	509.775972265451	940.768256538074	934.877594545846	637.510526932359	960.618441457270	956.761249211429	366.393035764879	1000.585796331696	745.744702010501	598.010564712869	926.523898395184	628.451991137536	649.763262970371	1011.702335964488	585.311050196201	570.644132169531	1021.651243150115	495.217499327980	574.824687977907	972.941952932819	728.651222917303	390.670696202133	874.038396914086	624.350942669225	319.974415795320	941.094658374993	532.942827929328	387.846896697672	926.575613111281	453.332071323364	386.987988138755	864.157319116362	399.008290282387	375.490126692793	733.032018069954	340.991207934194	317.269626858826	728.302254669049	213.210603139822	376.967704289465	990.384571941878	405.956823315439	578.374941461207	918.460017771378	301.676581493592	638.871443712252	958.563843884863	207.644690022423	573.098474349833	821.321817941423	44.646979042133	542.312973474708	993.701723451268	97.072723313445	578.149282693494	904.847130081811	37.943352940551	615.784626952443	1113.024974731437	41.211375808326	605.950655274781	544.232037805922	118.968749702855	404.027240138333	615.364078274306	84.998000094166	329.683753203600	714.061142343314	115.098750849415	357.949590244300	814.197654939442	33.356849570591	339.486126005065	1104.212037048523	1157.455293388645	176.517061943263	1364.814143670491	1156.853729716212	173.903891379487	756.191298024601	1125.629119920480	772.337154253153	718.328955290230	869.084200444409	800.706796461793	
